<?xml version="1.0" encoding="UTF-8"?>
<svg version="1.1" xmlns="http://www.w3.org/2000/svg" width="2334" height="1650">
<path d="M0 0 C9.99770317 4.7905661 19.06793284 15.38146338 26.27416992 23.77587891 C29.67960631 27.68282437 33.24634103 31.37569582 36.92578125 35.0234375 C37.57880219 35.67499817 38.23182312 36.32655884 38.90463257 36.99786377 C40.3084591 38.39791486 41.71343853 39.79681075 43.11947632 41.19464111 C45.35070887 43.41298821 47.57869592 45.63455062 49.8059082 47.85693359 C54.53445954 52.57411528 59.26693201 57.28735076 64 62 C69.48920057 67.46551981 74.97673766 72.93268852 80.46005249 78.40411377 C82.64424355 80.58187097 84.83144794 82.75656961 87.01879883 84.93115234 C88.37075495 86.27947252 89.72256896 87.62793523 91.07421875 88.9765625 C91.67390472 89.57108215 92.2735907 90.16560181 92.89144897 90.77813721 C96.51323885 94.39948046 99.90748926 98.15910486 103.25773621 102.03189087 C106.02259539 105.1551519 108.96448901 108.08765692 111.92578125 111.0234375 C112.57880219 111.67499817 113.23182312 112.32655884 113.90463257 112.99786377 C115.3084591 114.39791486 116.71343853 115.79681075 118.11947632 117.19464111 C120.35070887 119.41298821 122.57869592 121.63455062 124.8059082 123.85693359 C129.53445954 128.57411528 134.26693201 133.28735076 139 138 C144.48920057 143.46551981 149.97673766 148.93268852 155.46005249 154.40411377 C157.64424355 156.58187097 159.83144794 158.75656961 162.01879883 160.93115234 C163.37075495 162.27947252 164.72256896 163.62793523 166.07421875 164.9765625 C166.67390472 165.57108215 167.2735907 166.16560181 167.89144897 166.77813721 C171.54777545 170.4340128 174.98212375 174.22800076 178.36413574 178.13829041 C180.542477 180.61737068 182.84111073 182.95346667 185.18164062 185.27929688 C185.64934372 185.7455397 186.11704681 186.21178253 186.59892273 186.69215393 C187.59840365 187.68787713 188.59903585 188.6824459 189.60075378 189.67591858 C191.19353491 191.25573133 192.78299157 192.83882586 194.3717041 194.42272949 C197.74497313 197.78466861 201.12217602 201.14263819 204.5 204.5 C208.41971835 208.39597349 212.33772742 212.29363538 216.25151062 216.1955719 C217.80415238 217.74181555 219.35981403 219.2849738 220.91564941 220.82800293 C225.54944432 225.43807456 230.03997749 230.1026125 234.29260254 235.06774902 C237.60517021 238.81656104 241.19497959 242.29563789 244.75 245.8125 C245.56694336 246.62565674 246.38388672 247.43881348 247.22558594 248.27661133 C249.81462671 250.85353297 252.40688737 253.42717625 255 256 C258.41962719 259.39287153 261.83582149 262.78914657 265.25 266.1875 C266.02311523 266.95231689 266.79623047 267.71713379 267.59277344 268.50512695 C271.66203389 272.55616551 275.52892699 276.70015567 279.27514648 281.05029297 C282.25533678 284.41898366 285.45712054 287.55961694 288.65625 290.71875 C289.36221313 291.42092651 290.06817627 292.12310303 290.79553223 292.84655762 C293.02791358 295.06684603 295.26352111 297.28383955 297.5 299.5 C300.45090378 302.42409479 303.39833203 305.35163057 306.34375 308.28125 C307.00749634 308.936698 307.67124268 309.592146 308.35510254 310.26745605 C312.16573044 314.05834102 315.75192689 317.97056645 319.2635498 322.03869629 C322.11255347 325.25661839 325.16037899 328.26381359 328.21875 331.28125 C328.88032104 331.93903442 329.54189209 332.59681885 330.22351074 333.27453613 C332.31322735 335.35217274 334.40617315 337.42650627 336.5 339.5 C339.263417 342.2365815 342.02333722 344.97662263 344.78125 347.71875 C345.40124878 348.33045044 346.02124756 348.94215088 346.66003418 349.5723877 C350.38445478 353.2762189 353.8775553 357.11410226 357.31085205 361.08822632 C359.8181943 363.92603039 362.48897228 366.57618802 365.1953125 369.22265625 C366.3347677 370.34947563 367.47408661 371.47643283 368.61328125 372.60351562 C370.37323458 374.33864973 372.13478558 376.07210108 373.89892578 377.80297852 C375.62723553 379.50086196 377.34908057 381.20510208 379.0703125 382.91015625 C379.85174118 383.67139549 379.85174118 383.67139549 380.6489563 384.44801331 C386.2337357 389.99486906 390.97641657 395.54468127 391.5625 403.6875 C391.45421998 411.25725742 387.82564608 417.0427948 384.32275391 423.51513672 C376.02985809 439.0937808 368.63891285 454.93980944 364 472 C363.77844238 472.80195801 363.55688477 473.60391602 363.32861328 474.43017578 C357.79148733 495.43731032 357.37967592 520.97469342 363 542 C363.19335938 542.76602539 363.38671875 543.53205078 363.5859375 544.32128906 C369.27486616 566.50635501 379.23929303 585.50164757 394 603 C394.66386719 603.79921875 395.32773438 604.5984375 396.01171875 605.421875 C422.01757583 635.60982 461.82467563 651.81374028 501 655 C532.62878284 656.59436644 558.97870141 647.16640686 585.7421875 631.3828125 C592.20702302 627.81809011 597.73598049 626.61145942 604.984375 628.5234375 C619.21853222 634.46413948 631.63760284 651.55221574 642.25 662.25 C645.60640106 665.63318086 648.96623728 669.0128972 652.328125 672.390625 C653.08039368 673.15119202 653.83266235 673.91175903 654.60772705 674.69537354 C658.65743034 678.76361869 662.80383188 682.63186103 667.152771 686.37762451 C669.87841848 688.7714932 672.4267219 691.32031666 674.96875 693.90625 C675.49335815 694.43464478 676.01796631 694.96303955 676.55847168 695.50744629 C678.76116115 697.72619584 680.95770837 699.95098773 683.15478516 702.17529297 C690.3759325 709.55066181 690.3759325 709.55066181 698 716.5 C704.42681413 721.97717042 710.22478432 728.17180142 716.15478516 734.17529297 C721.59365932 739.67547749 727.0166122 745.10982611 732.90820312 750.13085938 C738.37729197 755.01780431 743.4306783 760.38440932 748.58203125 765.60253906 C755.57954703 772.74256639 755.57954703 772.74256639 762.96875 779.46875 C769.40376031 784.95978152 775.2140623 791.16094652 781.15478516 797.17529297 C786.59365932 802.67547749 792.0166122 808.10982611 797.90820312 813.13085938 C803.37729197 818.01780431 808.4306783 823.38440932 813.58203125 828.60253906 C820.57954703 835.74256639 820.57954703 835.74256639 827.96875 842.46875 C834.40376031 847.95978152 840.2140623 854.16094652 846.15478516 860.17529297 C853.3759325 867.55066181 853.3759325 867.55066181 861 874.5 C867.42681413 879.97717042 873.22478432 886.17180142 879.15478516 892.17529297 C886.35932929 899.53620225 886.35932929 899.53620225 893.96875 906.46875 C900.61261562 912.13089978 906.59641431 918.54413884 912.72753906 924.74804688 C914.42037988 926.45917307 916.11637537 928.1671297 917.8125 929.875 C918.56599731 930.64094482 918.56599731 930.64094482 919.3347168 931.42236328 C922.06462644 934.17052277 924.86452976 936.77794236 927.79980469 939.30639648 C932.5353179 943.40816882 936.95913181 947.7971689 941.390625 952.22265625 C942.25766052 953.08636337 943.12469604 953.9500705 944.01800537 954.83995056 C945.83785544 956.65476679 947.65637867 958.47091443 949.47363281 960.28833008 C952.25044544 963.06294509 955.03517367 965.82944908 957.8203125 968.59570312 C959.59423933 970.3666975 961.36769329 972.13816567 963.140625 973.91015625 C964.38443939 975.14319237 964.38443939 975.14319237 965.65338135 976.40113831 C972.44275397 983.2174739 977.09313279 988.30242803 977.3125 998.3125 C977.23958637 1004.88930913 976.05541541 1007.94458459 971.38671875 1012.61328125 C962.46394329 1020.90295513 951.2511803 1020.15628833 939.74829102 1020.28125 C938.4064329 1020.29908524 937.06458011 1020.31732561 935.72273254 1020.3359375 C932.8347852 1020.37512555 929.94682115 1020.41145681 927.05880928 1020.44555664 C922.43692418 1020.50015476 917.81513736 1020.56122072 913.19334412 1020.62304688 C905.82053209 1020.72091533 898.4476727 1020.81448628 891.07478231 1020.90624237 C882.07130712 1021.01834192 873.06787356 1021.1335911 864.06445312 1021.25 C863.26829362 1021.26029173 862.47213411 1021.27058346 861.65184855 1021.28118706 C845.48822262 1021.49048227 829.32474196 1021.70947631 813.1614151 1021.94073486 C810.44159007 1021.97961827 807.72175764 1022.01769899 805.00191498 1022.05535889 C797.92244985 1022.15356601 790.84325923 1022.2603153 783.76420403 1022.38476562 C781.71600513 1022.41947492 779.6677489 1022.45097377 777.61944771 1022.47900391 C774.86836612 1022.51732979 772.11776338 1022.56748884 769.36694336 1022.62109375 C768.18626817 1022.63365456 768.18626817 1022.63365456 766.98174095 1022.64646912 C760.4590205 1022.77573207 760.4590205 1022.77573207 755 1026 C754.17802564 1036.35687688 757.51586998 1043.92799607 764.09375 1051.84375 C765.03734375 1052.91109375 765.03734375 1052.91109375 766 1054 C766.6084375 1054.6909375 767.216875 1055.381875 767.84375 1056.09375 C778.6558996 1067.61489302 792.86062811 1074.57389089 808.62158322 1075.0850178 C811.56808278 1075.11374825 814.51278392 1075.1093606 817.4593811 1075.09333801 C818.58354789 1075.09137017 819.70771468 1075.08940234 820.86594713 1075.08737487 C824.61720254 1075.07968155 828.36839519 1075.0648143 832.11962891 1075.05004883 C834.81579605 1075.04321529 837.51196065 1075.03680976 840.20812988 1075.03102112 C846.00781882 1075.01793046 851.80749106 1075.00159424 857.60716629 1074.98346901 C866.78614397 1074.95517456 875.96512623 1074.93857211 885.14413452 1074.92399597 C888.28999525 1074.91887217 891.43585589 1074.91369808 894.58171654 1074.90852642 C895.76085441 1074.90659737 895.76085441 1074.90659737 896.96381325 1074.90462935 C905.90084602 1074.88991251 914.83787503 1074.8734284 923.77490234 1074.85571289 C924.59128785 1074.85409815 925.40767336 1074.8524834 926.24879782 1074.85081973 C939.46863501 1074.82430295 952.68842119 1074.78654282 965.90822025 1074.74552432 C979.50600639 1074.70369469 993.10376569 1074.67733515 1006.70160997 1074.66431636 C1015.07443056 1074.65575079 1023.44703265 1074.63482858 1031.8197761 1074.59768762 C1037.56518465 1074.57328943 1043.31050096 1074.56372616 1049.05596049 1074.56550769 C1052.36333623 1074.5660817 1055.67008157 1074.5580948 1058.97742844 1074.53663635 C1085.60010372 1074.37146984 1103.55091307 1079.04291455 1123.00878906 1097.95214844 C1125.78355489 1100.69842857 1128.54112251 1103.459846 1131.26831055 1106.25341797 C1135.04292025 1110.11160728 1138.9307584 1113.72377826 1143.02026367 1117.24511719 C1146.33096618 1120.17979836 1149.40384878 1123.3423787 1152.5 1126.5 C1156.96922081 1131.01775134 1161.46285229 1135.40521946 1166.296875 1139.53515625 C1172.60394288 1144.95981325 1178.19309312 1150.16032343 1179.37890625 1158.7421875 C1179.62803397 1164.6730345 1179.11740793 1168.44918071 1175 1173 C1170.96724658 1176.77556251 1167.97608602 1179.14956929 1162.375 1179.375 C1161.55773438 1179.42398437 1160.74046875 1179.47296875 1159.8984375 1179.5234375 C1152.77472205 1178.23694441 1147.25402854 1172.74253457 1142.1875 1167.875 C1141.24958618 1166.98832642 1141.24958618 1166.98832642 1140.29272461 1166.08374023 C1133.973666 1160.0665058 1127.8203587 1153.87817191 1121.69799805 1147.66162109 C1117.5128254 1143.42866129 1113.24573792 1139.39149421 1108.73071289 1135.51245117 C1106.60248879 1133.65261928 1104.63995059 1131.6674433 1102.6875 1129.625 C1092.53963072 1119.40726587 1082.62077747 1110.91859783 1067.71130943 1110.86446571 C1066.86225847 1110.86649183 1066.01320751 1110.86851795 1065.13842773 1110.87060547 C1064.22974756 1110.86887014 1063.32106739 1110.86713482 1062.38485146 1110.86534691 C1059.31774748 1110.86093701 1056.25069858 1110.86394819 1053.18359375 1110.8671875 C1050.96764613 1110.86625359 1048.75169862 1110.86500391 1046.53575134 1110.86346436 C1040.44881052 1110.86093492 1034.36189321 1110.8656728 1028.27495575 1110.8718338 C1024.44064643 1110.8749974 1020.60634423 1110.87572466 1016.77203369 1110.87567139 C984.41670851 1110.87679823 952.06383425 1111.01068045 919.70959115 1111.27626371 C916.35314218 1111.3036512 912.99668738 1111.33028303 909.64023238 1111.35692108 C894.81869332 1111.47477572 879.99723343 1111.59542572 865.17600542 1111.74796677 C858.94990498 1111.81165095 852.72376409 1111.86793127 846.49754709 1111.91894341 C842.88832367 1111.94889264 839.27923358 1111.98255718 835.67014885 1112.02629852 C804.93339123 1112.39476303 773.80181476 1111.56547994 749 1091 C748.14921875 1090.31164063 747.2984375 1089.62328125 746.421875 1088.9140625 C730.67750173 1075.53617478 719.87822205 1056.63831981 718 1036 C716.49634975 1009.40980884 716.49634975 1009.40980884 725.375 998.5625 C734.0154737 989.59251671 744.42194067 987.11261238 756.51464844 986.80381775 C758.71281597 986.76560447 760.91107206 986.73229038 763.109375 986.70288086 C764.31571594 986.68322769 765.52205688 986.66357452 766.76495361 986.64332581 C770.06867252 986.59048286 773.37240282 986.54163336 776.6762085 986.49474788 C780.17871443 986.44424165 783.68114773 986.38908589 787.18359375 986.33460999 C793.09826386 986.24332887 799.01297853 986.15560211 804.92773438 986.07006836 C810.9186771 985.98340272 816.90955564 985.89338091 822.90039062 985.79956055 C855.26674554 985.29293359 887.62851329 984.808649 920 985 C914.11697582 977.989658 907.694075 971.5476156 901.22265625 965.08984375 C900.08582754 963.95233967 898.94914717 962.81468733 897.81260681 961.67689514 C895.44155079 959.30437314 893.06871727 956.93364759 890.69458008 954.56420898 C887.67101539 951.54634088 884.65196367 948.52400424 881.63424015 945.50029659 C879.29130167 943.15372268 876.9459596 940.80956265 874.59991264 938.46609688 C873.48655516 937.35340043 872.37392319 936.2399775 871.26207161 935.12577629 C865.92894709 929.78385338 860.57907067 924.53031089 854.84080505 919.61842346 C851.50162575 916.68263941 848.40404612 913.50608247 845.28125 910.34375 C844.57907349 909.63778687 843.87689697 908.93182373 843.15344238 908.20446777 C840.18616234 905.22102625 837.22494637 902.2315929 834.26318359 899.24267578 C832.08381535 897.04509421 829.90135053 894.85062062 827.71875 892.65625 C826.735578 891.66063049 826.735578 891.66063049 825.73254395 890.64489746 C821.9459954 886.83862856 818.03813442 883.25748806 813.97473145 879.74987793 C810.6764163 876.82712664 807.59475263 873.69778665 804.5 870.5625 C803.82001953 869.87873291 803.14003906 869.19496582 802.43945312 868.49047852 C799.56774857 865.60262227 796.70211562 862.70876925 793.8359375 859.81542969 C791.72607213 857.68734275 789.61310355 855.56237083 787.5 853.4375 C786.86642578 852.79562744 786.23285156 852.15375488 785.58007812 851.49243164 C782.47875419 848.37442955 779.32890641 845.37492801 776 842.5 C771.98011377 839.02832429 768.22991377 835.34126691 764.5 831.5625 C763.82001953 830.87873291 763.14003906 830.19496582 762.43945312 829.49047852 C759.56774857 826.60262227 756.70211562 823.70876925 753.8359375 820.81542969 C751.72607213 818.68734275 749.61310355 816.56237083 747.5 814.4375 C746.86642578 813.79562744 746.23285156 813.15375488 745.58007812 812.49243164 C742.47875419 809.37442955 739.32890641 806.37492801 736 803.5 C731.98011377 800.02832429 728.22991377 796.34126691 724.5 792.5625 C723.82001953 791.87873291 723.14003906 791.19496582 722.43945312 790.49047852 C719.56774857 787.60262227 716.70211562 784.70876925 713.8359375 781.81542969 C711.72607213 779.68734275 709.61310355 777.56237083 707.5 775.4375 C706.86642578 774.79562744 706.23285156 774.15375488 705.58007812 773.49243164 C701.84307929 769.73533614 697.97881771 766.20705978 693.96899414 762.74414062 C690.74905039 759.89190527 687.73876419 756.84223376 684.71875 753.78125 C684.06096558 753.11967896 683.40318115 752.45810791 682.72546387 751.77648926 C679.94933442 748.98421856 677.17928463 746.18594584 674.40869141 743.38818359 C672.3683292 741.32959102 670.32485669 739.27412097 668.28125 737.21875 C667.66954956 736.59875122 667.05784912 735.97875244 666.4276123 735.33996582 C662.74020602 731.63206145 658.91948929 728.15657097 654.96325684 724.73840332 C651.82170789 721.95665871 648.88275731 718.98669448 645.9375 716 C645.30191162 715.360625 644.66632324 714.72125 644.01147461 714.0625 C641.33091985 711.36581517 638.65645336 708.6631227 635.98144531 705.9609375 C629.16493501 699.0813421 622.39963826 692.25853153 615 686 C612.38481062 683.63680301 609.80662354 681.23347268 607.2265625 678.83203125 C605.82988512 677.54138435 604.41553451 676.26993668 603 675 C602.11054688 674.09507812 602.11054688 674.09507812 601.203125 673.171875 C596.97783915 670.92438253 592.30311646 671.30446904 587.79785156 672.66503906 C585.5334563 673.57917247 583.33262891 674.58141923 581.125 675.625 C547.60261311 690.52090144 507.08029922 696.81804414 471 688 C470.17854492 687.80132324 469.35708984 687.60264648 468.51074219 687.39794922 C432.48414438 678.40813463 401.05755449 660.28125702 374 635 C373.12472656 634.19046875 372.24945312 633.3809375 371.34765625 632.546875 C340.01198794 602.51498629 324.77382902 559.22567163 323.796875 516.42578125 C323.42841592 482.70705155 327.7787062 450.21208492 345.35546875 420.8828125 C348.17368335 415.94256933 349.56366733 412.34138736 348.1875 406.625 C343.62482173 397.75098206 334.63365307 390.49896199 327.6171875 383.5546875 C326.75868195 382.69996857 325.90017639 381.84524963 325.01565552 380.96463013 C322.30455158 378.26561157 319.59020716 375.56989027 316.875 372.875 C313.28610505 369.31285458 309.70064393 365.74730303 306.1171875 362.1796875 C305.30659882 361.37739716 304.49601013 360.57510681 303.66085815 359.74850464 C299.5288548 355.63419839 295.59511292 351.43606899 291.79251099 347.0173645 C288.37436531 343.17044484 284.68781242 339.5871441 281.03125 335.96875 C280.1921106 335.13339722 279.35297119 334.29804443 278.48840332 333.43737793 C275.828031 330.78912914 273.16443987 328.14415594 270.5 325.5 C266.98662727 322.01337399 263.47668029 318.52335074 259.96875 315.03125 C258.77626648 313.85121399 258.77626648 313.85121399 257.55969238 312.64733887 C253.45444465 308.55998844 249.54941433 304.38518742 245.77087402 299.99572754 C242.49849777 296.30784725 238.97309869 292.87188907 235.46875 289.40625 C234.67400269 288.61528931 233.87925537 287.82432861 233.0604248 287.00939941 C230.54271568 284.50380477 228.02178554 282.00149142 225.5 279.5 C222.17411811 276.2008832 218.85167664 272.89835626 215.53125 269.59375 C214.40438782 268.47933533 214.40438782 268.47933533 213.25476074 267.34240723 C209.92397606 264.02695369 206.68347014 260.6907649 203.62304688 257.12304688 C199.62469271 252.48356799 195.30299005 248.18955714 190.95483398 243.87966919 C189.46285757 242.40068091 187.97422447 240.91839498 186.48632812 239.43530273 C183.32705235 236.28734751 180.16383977 233.1433673 177 230 C173.32809211 226.35185217 169.65790443 222.70200656 165.99194336 219.04788208 C164.53902092 217.60134931 163.08307719 216.15790833 161.62695312 214.71459961 C160.72912109 213.8200708 159.83128906 212.92554199 158.90625 212.00390625 C158.12572266 211.22861572 157.34519531 210.4533252 156.54101562 209.65454102 C154.50442321 207.52695941 152.56747965 205.37049449 150.6424408 203.14442444 C147.18416306 199.16325152 143.54852869 195.40706368 139.81469727 191.68530273 C139.13402191 191.00287506 138.45334656 190.32044739 137.75204468 189.61734009 C135.52598799 187.38692181 133.2963403 185.16013499 131.06640625 182.93359375 C129.50359251 181.37010533 127.94092715 179.80646858 126.37840271 178.24269104 C123.11285875 174.97567781 119.84552601 171.71046708 116.5769043 168.4465332 C112.40319259 164.27851829 108.23398695 160.10602951 104.06611729 155.93217373 C100.84303509 152.70546508 97.61755894 149.48115792 94.39137077 146.25755501 C92.85376687 144.72061461 91.31689553 143.18294093 89.78079414 141.64449883 C87.62784996 139.48899378 85.47168933 137.33675614 83.31469727 135.18530273 C82.37848289 134.24605202 82.37848289 134.24605202 81.4233551 133.28782654 C77.66896507 129.55113159 73.7958593 126.00704669 69.77665615 122.55635166 C67.22188019 120.31836667 64.87310787 117.93029119 62.5 115.5 C58.74850206 111.69130666 54.89410231 108.08033124 50.828125 104.609375 C48.39285203 102.46550222 46.14645466 100.15888835 43.87524414 97.84399414 C42.06043112 96.05942406 40.19073891 94.3901976 38.26171875 92.73046875 C34.18541879 89.18606366 30.23792178 85.52242763 26.3125 81.8125 C24.90402425 80.48657708 23.49516522 79.16106119 22.0859375 77.8359375 C21.39467773 77.18592773 20.70341797 76.53591797 19.99121094 75.86621094 C16.64275292 72.72795528 13.26956773 69.6167272 9.88647461 66.51586914 C6.88154984 63.75672115 3.91085751 60.96660493 0.96484375 58.14453125 C0.28429932 57.49685791 -0.39624512 56.84918457 -1.09741211 56.18188477 C-2.42566671 54.91632442 -3.74833398 53.64486784 -5.06469727 52.36694336 C-5.66467529 51.7972583 -6.26465332 51.22757324 -6.8828125 50.640625 C-7.67776123 49.87540527 -7.67776123 49.87540527 -8.48876953 49.09472656 C-10.09390891 47.70667703 -10.09390891 47.70667703 -13 48 C-15.38303159 49.87835447 -17.62651349 51.78345399 -19.875 53.8125 C-21.23239073 55.01509336 -22.59047556 56.21690368 -23.94921875 57.41796875 C-24.63032715 58.02302246 -25.31143555 58.62807617 -26.01318359 59.25146484 C-28.86308991 61.75957851 -31.77366853 64.19183723 -34.6875 66.625 C-39.97835864 71.06996697 -45.09311081 75.68153416 -50.16015625 80.37890625 C-52.78875401 82.80502606 -55.44992844 85.1879045 -58.125 87.5625 C-62.37513491 91.36991252 -66.40395104 95.35630954 -70.3828125 99.4453125 C-72.43969381 101.45307425 -74.5153528 103.32696182 -76.69262695 105.19702148 C-80.80149998 108.78043724 -84.68727991 112.54223425 -88.53515625 116.40234375 C-89.21750839 117.08373917 -89.89986053 117.76513458 -90.60289001 118.46717834 C-92.03344437 119.89705741 -93.46275767 121.32817911 -94.89086914 122.76049805 C-97.05699074 124.93197711 -99.22840174 127.09806325 -101.40039062 129.26367188 C-102.79979987 130.66374202 -104.19889884 132.06412238 -105.59765625 133.46484375 C-106.23639175 134.10155502 -106.87512726 134.7382663 -107.53321838 135.39427185 C-111.33905058 139.21963249 -114.95699907 143.15841024 -118.47264099 147.25245667 C-120.53934387 149.61709577 -122.75062016 151.80981437 -125 154 C-128.48090062 157.44436943 -131.77503619 160.95324895 -134.95703125 164.671875 C-137.73946172 167.8426753 -140.62106517 170.91693136 -143.5 174 C-148.09098747 178.92609605 -152.62172037 183.88277023 -157 189 C-157.88791299 190.03394678 -158.77594505 191.06779133 -159.6640625 192.1015625 C-161.71469978 194.49009079 -163.76246768 196.88104395 -165.80859375 199.2734375 C-167.92030934 201.74174374 -170.0376464 204.20503309 -172.16015625 206.6640625 C-177.17631902 212.48091991 -182.14253762 218.31726532 -186.90234375 224.34765625 C-188.46590549 226.3246738 -190.04070031 228.28906542 -191.62890625 230.24609375 C-199.35994383 239.79395801 -206.7466564 249.57806184 -214.08105469 259.43261719 C-215.95157933 261.93521733 -217.83619745 264.42642571 -219.7265625 266.9140625 C-234.26100891 286.07136601 -247.79278069 305.91008747 -261 326 C-261.47211914 326.71784668 -261.94423828 327.43569336 -262.43066406 328.17529297 C-265.65701571 333.09368167 -268.84041441 338.03848752 -272 343 C-272.5470459 343.85835449 -273.0940918 344.71670898 -273.65771484 345.60107422 C-316.27571813 412.66679756 -353.21327588 483.94626093 -418 685 C-418.19422546 685.79623779 -418.38845093 686.59247559 -418.58856201 687.4128418 C-434.0703656 750.9892153 -443.92136935 815.67420554 -449.25 880.875 C-449.33317474 881.89140564 -449.41634949 882.90781128 -449.50204468 883.95501709 C-451.33257791 906.58166858 -452.40111577 929.17143763 -452.5625 951.875 C-452.56795837 952.56034946 -452.57341675 953.24569893 -452.57904053 953.95181656 C-452.86874053 994.96853317 -449.61995817 1035.91208243 -446.84594727 1076.81005859 C-446.79946293 1077.49613941 -446.75297859 1078.18222023 -446.70508564 1078.88909137 C-446.21852378 1086.0664709 -445.72601378 1093.24337805 -445.21958923 1100.41938782 C-445.0964128 1102.19022075 -445.0964128 1102.19022075 -444.97074795 1103.99682808 C-444.81925799 1106.17361259 -444.66514768 1108.35021728 -444.50769901 1110.5265789 C-443.12740044 1130.49970837 -443.12740044 1130.49970837 -447 1138 C-451.27753606 1142.27753606 -454.89221099 1143.17100882 -460.8125 1143.3125 C-466.06464595 1143.25548032 -469.06847047 1142.73495305 -473 1139 C-478.25009412 1132.5832183 -479.18047444 1125.03907941 -480.00878906 1117.01782227 C-480.13073009 1115.88436151 -480.13073009 1115.88436151 -480.25513458 1114.72800255 C-480.51794058 1112.23749299 -480.76860329 1109.7460291 -481.015625 1107.25390625 C-481.10293129 1106.38156404 -481.19023758 1105.50922184 -481.28018951 1104.61044502 C-483.27310116 1084.39125786 -484.09340097 1064.16805733 -484.66655731 1043.86582947 C-484.75168112 1040.87850298 -484.84132086 1037.89133915 -484.9319458 1034.9041748 C-486.64528576 977.96854014 -488.00016569 920.80472644 -483 864 C-482.82652594 861.96957526 -482.65318922 859.93913879 -482.47998047 857.90869141 C-475.10437665 772.61804689 -459.39503531 687.74129126 -433.64007568 606.0335083 C-432.95811704 603.86693862 -432.28097002 601.69889623 -431.60400391 599.53076172 C-406.56839546 519.55315904 -373.030124 441.56229967 -331 369 C-330.67217529 368.43285278 -330.34435059 367.86570557 -330.0065918 367.28137207 C-327.8502391 363.550826 -325.68729885 359.82419547 -323.51699829 356.10174561 C-322.48936939 354.33897551 -321.4637473 352.57503596 -320.43823242 350.81103516 C-310.79652137 334.35988768 -300.38342614 318.40714481 -289.79101562 302.55615234 C-287.99783545 299.87175967 -286.20964175 297.18409387 -284.421875 294.49609375 C-274.88775758 280.1887862 -265.11039704 266.06630306 -254.875 252.25 C-254.28936279 251.45762939 -253.70372559 250.66525879 -253.1003418 249.84887695 C-242.07683806 234.97235166 -230.62109225 220.41343951 -219 206 C-218.53368164 205.42024414 -218.06736328 204.84048828 -217.58691406 204.24316406 C-211.25174986 196.37317143 -204.84688873 188.5797238 -198.23706055 180.93847656 C-195.27633876 177.5108397 -192.39556948 174.03488632 -189.5625 170.5 C-184.95965196 164.82399249 -179.98614359 159.52836783 -174.98828125 154.203125 C-172.79539746 151.86386908 -170.65168627 149.49547641 -168.5625 147.0625 C-160.82749793 138.11227316 -152.66239585 129.44556149 -144.16015625 121.22265625 C-142.29394628 119.30245105 -140.55106622 117.34020491 -138.8046875 115.3125 C-134.75508298 110.65159366 -130.43802522 106.29087066 -126.0625 101.9375 C-124.92264648 100.7918457 -124.92264648 100.7918457 -123.75976562 99.62304688 C-119.57181431 95.44224834 -115.29022923 91.44879641 -110.80639648 87.58813477 C-108.24481596 85.33606268 -105.88319721 82.94062365 -103.5 80.5 C-99.86775706 76.81850419 -96.15966834 73.29992256 -92.2265625 69.94140625 C-89.26046515 67.35517751 -86.38378885 64.67730645 -83.5 62 C-77.699741 56.62677408 -71.80601123 51.3915755 -65.7890625 46.26171875 C-64.58837959 45.23716908 -63.38786379 44.21242354 -62.1875 43.1875 C-61.58131836 42.67018311 -60.97513672 42.15286621 -60.35058594 41.61987305 C-56.6092918 38.41497771 -52.93884617 35.14790722 -49.3125 31.8125 C-44.95227301 27.80925066 -40.4348149 24.06889887 -35.82421875 20.359375 C-32.73534171 17.77890234 -29.80782543 15.06659111 -26.875 12.3125 C-18.59372502 4.56575947 -11.67233441 -1.23248252 0 0 Z " fill="#000000" transform="translate(921,302)"/>
<path d="M0 0 C0.68725159 -0.00635468 1.37450317 -0.01270935 2.08258057 -0.01925659 C15.33481607 -0.09547348 28.34102106 1.64974003 40.9375 5.9375 C41.66606201 6.18467773 42.39462402 6.43185547 43.14526367 6.68652344 C58.2061604 12.07891198 72.13393731 20.02074484 84.25 30.4375 C85.13816406 31.17613281 86.02632812 31.91476562 86.94140625 32.67578125 C111.79215035 54.03603915 126.45793854 85.74352488 129.9375 118 C132.41120451 152.99261175 122.55048389 187.6865473 99.75146484 214.72070312 C80.88460136 236.29335094 58.76161528 249.6240451 31.25 257.4375 C29.99574219 257.79972656 28.74148438 258.16195313 27.44921875 258.53515625 C7.45439133 263.23339439 -16.0891161 261.99165406 -35.75 256.4375 C-36.75256836 256.16462158 -36.75256836 256.16462158 -37.77539062 255.88623047 C-58.4610709 250.11671994 -75.86764943 238.58606297 -91.75 224.4375 C-92.41773438 223.84324219 -93.08546875 223.24898437 -93.7734375 222.63671875 C-116.48606695 201.15035802 -129.92269246 168.08330919 -131.03515625 137.1484375 C-131.78819245 100.47557445 -120.66134862 67.71081352 -95.75 40.4375 C-95.03457031 39.63957031 -94.31914063 38.84164062 -93.58203125 38.01953125 C-69.27175781 12.2497292 -34.73345294 0.16378631 0 0 Z " fill="#FF9325" transform="translate(913.75,671.5625)"/>
<path d="M0 0 C5.24562937 2.62281468 8.53262087 6.21197965 11.25 11.375 C13.04946898 17.67314143 11.99233319 23.30563461 9 29 C5.84877614 33.62530472 1.99726461 36.35118732 -2.5625 39.4375 C-4.09233883 40.49567315 -5.62093816 41.55564004 -7.1484375 42.6171875 C-8.34098145 43.44428223 -8.34098145 43.44428223 -9.55761719 44.28808594 C-21.67331846 52.78021882 -33.46879892 61.73237815 -45 71 C-45.6403418 71.5141748 -46.28068359 72.02834961 -46.94042969 72.55810547 C-58.7817179 82.08436174 -70.49509 91.73931932 -81.74609375 101.9609375 C-83.7688269 103.79086247 -85.81369435 105.58881728 -87.875 107.375 C-92.77013327 111.64605253 -97.55214257 116.03908131 -102.32080078 120.45019531 C-103.42345039 121.46787774 -104.52852337 122.48294197 -105.63623047 123.49511719 C-115.71323172 132.70417235 -125.40241472 142.29559905 -135.0625 151.9375 C-135.69896454 152.57137634 -136.33542908 153.20525269 -136.99118042 153.8583374 C-146.09286871 162.91956482 -146.09286871 162.91956482 -154.68139648 172.46313477 C-156.35596431 174.41488527 -158.15060619 176.21437839 -160 178 C-163.14578336 181.10375954 -166.07294016 184.31876298 -168.953125 187.66796875 C-171.58167382 190.66270853 -174.28947025 193.57955829 -177 196.5 C-181.41516963 201.26622287 -185.76849811 206.06907631 -190 211 C-190.42216797 211.49048828 -190.84433594 211.98097656 -191.27929688 212.48632812 C-194.86240643 216.64941975 -198.43408451 220.82217521 -202 225 C-202.49113281 225.57508301 -202.98226563 226.15016602 -203.48828125 226.74267578 C-208.69961248 232.85124093 -213.85971326 238.99157584 -218.84765625 245.28515625 C-220.49396677 247.36171852 -222.14771438 249.4312317 -223.80859375 251.49609375 C-229.79957008 258.94783581 -235.71570203 266.44952182 -241.51123047 274.0546875 C-243.24010584 276.31373619 -244.98155293 278.5628631 -246.72265625 280.8125 C-253.90533769 290.125218 -260.86201965 299.5213666 -267.43041992 309.27832031 C-270.54884854 313.90613194 -273.7664113 318.41957201 -277.125 322.875 C-286.03922795 334.79992678 -293.9351355 347.49301845 -302 360 C-302.86890869 361.34698975 -302.86890869 361.34698975 -303.75537109 362.72119141 C-307.2226339 368.11532304 -310.62908681 373.54519398 -314 379 C-314.63615234 380.02883301 -315.27230469 381.05766602 -315.92773438 382.11767578 C-326.04067836 398.51928161 -335.72236047 415.10798661 -345 432 C-346.01411736 433.83344705 -347.02843499 435.66678333 -348.04296875 437.5 C-389.04855946 511.85257594 -422.35733544 590.16377867 -506.25 962.5625 C-506.32731354 963.41611115 -506.40462708 964.26972229 -506.48428345 965.14920044 C-509.2705208 996.38930304 -510.34657204 1027.68023777 -510.26074219 1059.03442383 C-510.24933956 1063.22702731 -510.2561635 1067.4193769 -510.26761341 1071.61197186 C-510.3411382 1103.36173999 -509.00513792 1134.96593205 -505.8125 1166.5625 C-505.60378 1168.70635051 -505.39537615 1170.85023182 -505.18725586 1172.99414062 C-504.02377532 1184.7999749 -502.7181484 1196.58509011 -501.29976845 1208.3625927 C-501.04783529 1210.45686107 -500.79774004 1212.55134148 -500.54814148 1214.64588928 C-499.5737696 1222.82418249 -499.5737696 1222.82418249 -498.55557251 1230.99710083 C-498.07626857 1234.76730062 -497.61688001 1238.53950862 -497.16015625 1242.3125 C-497.01257874 1243.41975937 -496.86500122 1244.52701874 -496.71295166 1245.66783142 C-495.77764204 1253.60034941 -495.1285603 1262.62417587 -499.68617249 1269.56958008 C-502.92528403 1273.48671084 -505.20296691 1275.72831366 -510.453125 1276.23828125 C-516.64008315 1276.40246031 -521.34497179 1276.34302262 -526 1272 C-532.67255027 1263.26230867 -532.56277214 1251.76700092 -533.53515625 1241.2734375 C-533.74101596 1239.20537459 -533.94852595 1237.13747537 -534.15757751 1235.06973267 C-534.70473238 1229.60882615 -535.22755669 1224.14584513 -535.74578857 1218.68212891 C-536.15867144 1214.37076927 -536.58851513 1210.06119167 -537.01945305 1205.75160503 C-539.26903103 1183.25001101 -541.33244562 1160.73314781 -543.23046875 1138.19921875 C-543.35353236 1136.75187662 -543.35353236 1136.75187662 -543.47908211 1135.27529526 C-546.1747462 1103.41829542 -547.75571544 1071.71648482 -546.046875 1039.7734375 C-545.94424545 1037.81760225 -545.84172946 1035.86176103 -545.73931885 1033.90591431 C-545.5235513 1029.80593489 -545.30452306 1025.70614439 -545.08349609 1021.60644531 C-544.8628421 1017.50612542 -544.64760909 1013.4055861 -544.43798828 1009.3046875 C-542.50942516 971.60880524 -540.07252143 933.8992026 -534.8125 896.5 C-534.66793365 895.45066284 -534.52336731 894.40132568 -534.37442017 893.32019043 C-521.47205766 799.85439353 -500.04478676 707.81546917 -438 540 C-437.67837891 539.25470032 -437.35675781 538.50940063 -437.02539062 537.74151611 C-427.58233567 515.90034482 -417.56843608 494.37257473 -407.01293945 473.04803467 C-405.9849049 470.96947962 -404.95989154 468.88945772 -403.93554688 466.80908203 C-395.65503083 450.00294472 -387.20125058 433.32587841 -378 417 C-377.09580322 415.39294189 -377.09580322 415.39294189 -376.17333984 413.75341797 C-363.53975654 391.35333497 -350.48662316 369.20961286 -336.62353516 347.54492188 C-334.82682998 344.72855274 -333.04413168 341.90355946 -331.26171875 339.078125 C-322.80707311 325.71701628 -314.03218304 312.63484234 -304.9140625 299.71826172 C-303.05710883 297.08110328 -301.21358402 294.43514594 -299.375 291.78515625 C-278.00135706 261.00592547 -255.20092231 231.09928749 -230.88061523 202.58178711 C-228.05313305 199.26301764 -225.29377712 195.89815986 -222.5625 192.5 C-218.18315122 187.11426586 -213.49955162 182.05183201 -208.765625 176.98046875 C-206.67089076 174.73401311 -204.62670331 172.45526572 -202.625 170.125 C-192.54949929 158.51996545 -181.7387009 147.59755453 -170.81420898 136.79833984 C-166.70255617 132.72265224 -162.62264657 128.61545999 -158.54296875 124.5078125 C-156.9651599 122.92261789 -155.38686367 121.33791034 -153.80834961 119.75341797 C-152.73224621 118.67228983 -151.65704256 117.59026533 -150.58276367 116.50732422 C-145.1165838 110.99840708 -139.6529067 105.54120079 -133.74584961 100.49853516 C-130.98091161 98.12527415 -128.34448377 95.6175218 -125.6875 93.125 C-120.81760188 88.58973456 -115.80345476 84.31319449 -110.61328125 80.14453125 C-108.00152377 78.00125044 -105.49634698 75.7761967 -103 73.5 C-98.75348314 69.63466655 -94.3698689 65.98601754 -89.90625 62.375 C-86.79607096 59.83334831 -83.74104413 57.23399146 -80.6875 54.625 C-75.72597406 50.3981884 -70.65738034 46.33699316 -65.51245117 42.33642578 C-60.7730237 38.6388524 -56.12872872 34.83492046 -51.5 31 C-44.64630863 25.32784684 -37.71972999 19.76600115 -30.68945312 14.31445312 C-28.9378779 12.95166685 -27.19519204 11.57803851 -25.453125 10.203125 C-24.30231097 9.30179261 -23.15127745 8.40074039 -22 7.5 C-20.4840625 6.30890625 -20.4840625 6.30890625 -18.9375 5.09375 C-12.63919189 0.60453039 -7.66652074 -1.12375711 0 0 Z " fill="#000000" transform="translate(780,169)"/>
<path d="M0 0 C23.63767637 21.02320611 40.02664369 50.44079586 42.578125 82.29296875 C44.60943446 120.07169738 34.51217353 152.6643172 9.3828125 181.23046875 C-10.71504165 203.47819688 -40.93235325 218.78517262 -71.02905273 220.49829102 C-74.9125198 220.59627357 -78.78722113 220.62212781 -82.671875 220.60546875 C-83.6981752 220.60223602 -83.6981752 220.60223602 -84.74520874 220.59893799 C-94.95240793 220.54735711 -104.54787878 220.11564376 -114.421875 217.29296875 C-115.10894531 217.10492676 -115.79601563 216.91688477 -116.50390625 216.72314453 C-134.35634659 211.74079162 -150.28594779 203.2448042 -164.421875 191.29296875 C-165.18886719 190.66519531 -165.95585938 190.03742188 -166.74609375 189.390625 C-171.46914687 185.42326038 -175.54063776 181.08065205 -179.421875 176.29296875 C-180.12183594 175.43058594 -180.82179688 174.56820313 -181.54296875 173.6796875 C-203.02675173 146.1640625 -211.80960642 112.44217214 -207.70361328 77.81884766 C-204.39041049 54.10947449 -194.87001709 32.51804273 -179.421875 14.29296875 C-178.78427246 13.52992432 -178.78427246 13.52992432 -178.13378906 12.75146484 C-156.76060474 -12.61813505 -126.22527495 -27.26454562 -93.44140625 -30.39453125 C-59.25177184 -33.2362671 -26.05703658 -22.13324306 0 0 Z " fill="#FF9325" transform="translate(1340.421875,1154.70703125)"/>
<path d="M0 0 C22.14589711 20.18618799 35.25025862 46.40936368 40.16235352 75.81323242 C40.29512695 76.58666992 40.42790039 77.36010742 40.56469727 78.15698242 C45.04392589 110.06381646 35.39787076 143.78769398 16.47485352 169.56323242 C-5.36708024 196.39565496 -34.92160931 215.19130709 -69.83764648 218.81323242 C-106.10780061 221.17482133 -139.29715816 212.9058044 -167.25561523 188.92651367 C-186.36283183 172.04235893 -200.76397657 149.7240815 -206.83764648 124.81323242 C-207.13541992 123.62600586 -207.43319336 122.4387793 -207.73999023 121.21557617 C-215.10174713 88.48565868 -208.3971281 53.59983389 -190.71264648 25.34838867 C-171.46817096 -3.55268976 -143.33232717 -22.24922772 -109.71264648 -29.89770508 C-70.29322032 -37.6248085 -29.96011902 -26.5957166 0 0 Z " fill="#FF9325" transform="translate(877.837646484375,1156.186767578125)"/>
<path d="M0 0 C12.2148364 9.34918563 20.08228857 21.22682844 22.6796875 36.45703125 C24.6446756 52.0571197 20.54657133 66.25725849 11 78.58203125 C1.95665014 89.35330689 -8.96701567 94.92421014 -22.625 97.75 C-23.73875 97.8325 -24.8525 97.915 -26 98 C-26.68707031 98.06316406 -27.37414063 98.12632812 -28.08203125 98.19140625 C-42.1713963 98.91573513 -55.57601791 93.72311448 -66.45703125 85.0390625 C-76.93635217 75.43450602 -83.21878325 62.45714426 -84.2734375 48.33984375 C-84.66652228 33.47821523 -81.05155622 20.56260398 -71.484375 8.9453125 C-52.65979394 -10.90117439 -23.12836033 -15.53194873 0 0 Z " fill="#FF9325" transform="translate(1442,786)"/>
</svg>
